<mxfile host="65bd71144e">
    <diagram id="HIP3nbAZw_EuaXWnEj3U" name="Page-1">
        <mxGraphModel dx="1086" dy="658" grid="1" gridSize="10" guides="1" tooltips="1" connect="1" arrows="1" fold="1" page="1" pageScale="1" pageWidth="850" pageHeight="1100" math="0" shadow="0">
            <root>
                <mxCell id="0"/>
                <mxCell id="1" parent="0"/>
                <mxCell id="54" style="edgeStyle=none;html=1;entryX=0.5;entryY=0;entryDx=0;entryDy=0;" edge="1" parent="1" source="55" target="60">
                    <mxGeometry relative="1" as="geometry"/>
                </mxCell>
                <mxCell id="55" value="Start" style="strokeWidth=2;html=1;shape=mxgraph.flowchart.terminator;whiteSpace=wrap;" vertex="1" parent="1">
                    <mxGeometry x="165" y="170" width="100" height="60" as="geometry"/>
                </mxCell>
                <mxCell id="56" value="Stop" style="strokeWidth=2;html=1;shape=mxgraph.flowchart.terminator;whiteSpace=wrap;" vertex="1" parent="1">
                    <mxGeometry x="280" y="780" width="100" height="60" as="geometry"/>
                </mxCell>
                <mxCell id="58" value="Get inputAge" style="shape=parallelogram;html=1;strokeWidth=2;perimeter=parallelogramPerimeter;whiteSpace=wrap;rounded=1;arcSize=12;size=0.23;" vertex="1" parent="1">
                    <mxGeometry x="150" y="390" width="130" height="50" as="geometry"/>
                </mxCell>
                <mxCell id="59" style="edgeStyle=none;html=1;" edge="1" parent="1" source="60" target="58">
                    <mxGeometry relative="1" as="geometry"/>
                </mxCell>
                <mxCell id="60" value="Input age" style="rounded=1;whiteSpace=wrap;html=1;absoluteArcSize=1;arcSize=14;strokeWidth=2;" vertex="1" parent="1">
                    <mxGeometry x="165" y="280" width="100" height="80" as="geometry"/>
                </mxCell>
                <mxCell id="107" style="edgeStyle=none;html=1;exitX=0.5;exitY=1;exitDx=0;exitDy=0;exitPerimeter=0;entryX=0.5;entryY=0;entryDx=0;entryDy=0;" edge="1" parent="1" source="64" target="68">
                    <mxGeometry relative="1" as="geometry"/>
                </mxCell>
                <mxCell id="108" style="edgeStyle=none;html=1;exitX=1;exitY=0.5;exitDx=0;exitDy=0;exitPerimeter=0;entryX=0;entryY=0.5;entryDx=0;entryDy=0;" edge="1" parent="1" source="64" target="72">
                    <mxGeometry relative="1" as="geometry"/>
                </mxCell>
                <mxCell id="64" value="&lt;span style=&quot;color: rgb(0, 0, 0);&quot;&gt;if&lt;/span&gt;&lt;div style=&quot;color: rgb(63, 63, 63); scrollbar-color: rgb(226, 226, 226) rgb(251, 251, 251);&quot;&gt;day&lt;/div&gt;&lt;div style=&quot;color: rgb(63, 63, 63); scrollbar-color: rgb(226, 226, 226) rgb(251, 251, 251);&quot;&gt;==&lt;br style=&quot;color: rgb(63, 63, 63); scrollbar-color: rgb(226, 226, 226) rgb(251, 251, 251);&quot;&gt;Tuesday&amp;nbsp;&lt;span style=&quot;background-color: transparent;&quot;&gt;||&lt;/span&gt;&lt;span style=&quot;background-color: transparent;&quot;&gt;Thursday&lt;/span&gt;&lt;/div&gt;&lt;div style=&quot;color: rgb(63, 63, 63); scrollbar-color: rgb(226, 226, 226) rgb(251, 251, 251);&quot;&gt;||&lt;/div&gt;&lt;div style=&quot;color: rgb(63, 63, 63); scrollbar-color: rgb(226, 226, 226) rgb(251, 251, 251);&quot;&gt;age&amp;nbsp;&lt;span style=&quot;background-color: transparent;&quot;&gt;&amp;gt;=&amp;nbsp;&lt;/span&gt;&lt;span style=&quot;background-color: transparent;&quot;&gt;12&lt;/span&gt;&lt;/div&gt;&lt;div style=&quot;color: rgb(63, 63, 63); scrollbar-color: rgb(226, 226, 226) rgb(251, 251, 251);&quot;&gt;&amp;amp;&amp;amp;&lt;/div&gt;&lt;div style=&quot;color: rgb(63, 63, 63); scrollbar-color: rgb(226, 226, 226) rgb(251, 251, 251);&quot;&gt;age&amp;nbsp;&lt;span style=&quot;background-color: transparent;&quot;&gt;&amp;lt;=&amp;nbsp;&lt;/span&gt;&lt;span style=&quot;background-color: transparent;&quot;&gt;21&lt;/span&gt;&lt;/div&gt;" style="strokeWidth=2;html=1;shape=mxgraph.flowchart.decision;whiteSpace=wrap;" vertex="1" parent="1">
                    <mxGeometry x="160" y="490" width="110" height="110" as="geometry"/>
                </mxCell>
                <mxCell id="68" value="Show&lt;div&gt;&quot;You are eligible for student Pricing&quot;&lt;/div&gt;" style="shape=parallelogram;html=1;strokeWidth=2;perimeter=parallelogramPerimeter;whiteSpace=wrap;rounded=1;arcSize=12;size=0.23;" vertex="1" parent="1">
                    <mxGeometry x="150" y="660" width="130" height="50" as="geometry"/>
                </mxCell>
                <mxCell id="111" style="edgeStyle=orthogonalEdgeStyle;html=1;exitX=0.5;exitY=1;exitDx=0;exitDy=0;entryX=0.5;entryY=0;entryDx=0;entryDy=0;entryPerimeter=0;rounded=0;curved=0;" edge="1" parent="1" source="72" target="56">
                    <mxGeometry relative="1" as="geometry">
                        <mxPoint x="460" y="780" as="targetPoint"/>
                        <mxPoint x="480" y="570" as="sourcePoint"/>
                        <Array as="points">
                            <mxPoint x="415" y="740"/>
                            <mxPoint x="330" y="740"/>
                        </Array>
                    </mxGeometry>
                </mxCell>
                <mxCell id="72" value="Show&lt;div&gt;&quot;You must pay regular price&quot;&lt;/div&gt;" style="shape=parallelogram;html=1;strokeWidth=2;perimeter=parallelogramPerimeter;whiteSpace=wrap;rounded=1;arcSize=12;size=0.23;" vertex="1" parent="1">
                    <mxGeometry x="350" y="520" width="130" height="50" as="geometry"/>
                </mxCell>
                <mxCell id="75" value="yes" style="text;html=1;align=center;verticalAlign=middle;resizable=0;points=[];autosize=1;strokeColor=none;fillColor=none;" vertex="1" parent="1">
                    <mxGeometry x="170" y="620" width="40" height="30" as="geometry"/>
                </mxCell>
                <mxCell id="85" value="No" style="text;html=1;align=center;verticalAlign=middle;resizable=0;points=[];autosize=1;strokeColor=none;fillColor=none;" vertex="1" parent="1">
                    <mxGeometry x="280" y="520" width="40" height="30" as="geometry"/>
                </mxCell>
                <mxCell id="105" style="edgeStyle=none;html=1;exitX=0.5;exitY=1;exitDx=0;exitDy=0;entryX=0.5;entryY=0;entryDx=0;entryDy=0;entryPerimeter=0;" edge="1" parent="1" source="58" target="64">
                    <mxGeometry relative="1" as="geometry"/>
                </mxCell>
                <mxCell id="110" style="edgeStyle=orthogonalEdgeStyle;html=1;exitX=0.5;exitY=1;exitDx=0;exitDy=0;entryX=0.5;entryY=0;entryDx=0;entryDy=0;entryPerimeter=0;rounded=0;" edge="1" parent="1" source="68" target="56">
                    <mxGeometry relative="1" as="geometry">
                        <mxPoint x="300" y="810" as="targetPoint"/>
                        <Array as="points">
                            <mxPoint x="215" y="740"/>
                            <mxPoint x="330" y="740"/>
                        </Array>
                    </mxGeometry>
                </mxCell>
            </root>
        </mxGraphModel>
    </diagram>
</mxfile>